<svg width="24" height="24" viewBox="0 0 24 24" fill="none" xmlns="http://www.w3.org/2000/svg">
<path d="M12.0088 13.045L12 13.0361L11.9911 13.045L6.91805 18.118C6.78207 18.254 6.61122 18.3237 6.4046 18.3269C6.19829 18.3301 6.02434 18.2605 5.88193 18.118C5.73941 17.9755 5.66826 17.8031 5.66826 17.6C5.66826 17.3969 5.73941 17.2244 5.88192 17.0819L10.955 12.0088L10.9638 12L10.955 11.9911L5.88193 6.91805C5.74593 6.78207 5.67624 6.61122 5.67309 6.4046L5.67309 6.40459C5.66992 6.19829 5.73949 6.02434 5.88192 5.88193L5.88193 5.88192C6.02443 5.73941 6.19687 5.66826 6.39999 5.66826C6.6031 5.66826 6.77554 5.73941 6.91805 5.88192L11.9911 10.955L12 10.9638L12.0088 10.955L17.0819 5.88193C17.2179 5.74593 17.3888 5.67624 17.5954 5.67309C17.8017 5.66992 17.9756 5.73949 18.118 5.88192C18.2606 6.02443 18.3317 6.19687 18.3317 6.39999C18.3317 6.6031 18.2606 6.77554 18.118 6.91805L13.045 11.9911L13.0361 12L13.045 12.0088L18.118 17.0819C18.254 17.2179 18.3237 17.3888 18.3269 17.5954C18.3301 17.8017 18.2605 17.9756 18.118 18.118C17.9755 18.2606 17.8031 18.3317 17.6 18.3317C17.3969 18.3317 17.2244 18.2606 17.0819 18.118L12.0088 13.045Z" fill="#222222" stroke="#222222" stroke-width="0.025"/>
</svg>
