<svg width="24" height="24" viewBox="0 0 18 18" fill="none" xmlns="http://www.w3.org/2000/svg">
<path d="M3.75 15.75C3.3375 15.75 2.98438 15.6031 2.69063 15.3094C2.39687 15.0156 2.25 14.6625 2.25 14.25V3.75001C2.25 3.33751 2.39687 2.98439 2.69063 2.69064C2.98438 2.39689 3.3375 2.25001 3.75 2.25001H10.4438L8.94375 3.75001H3.75V14.25H14.25V9.03751L15.75 7.53751V14.25C15.75 14.6625 15.6031 15.0156 15.3094 15.3094C15.0156 15.6031 14.6625 15.75 14.25 15.75H3.75ZM6.75 11.25V8.06251L13.6313 1.18126C13.7812 1.03126 13.95 0.918762 14.1375 0.843762C14.325 0.768762 14.5125 0.731262 14.7 0.731262C14.9 0.731262 15.0906 0.768762 15.2719 0.843762C15.4531 0.918762 15.6188 1.03126 15.7688 1.18126L16.8188 2.25001C16.9563 2.40001 17.0625 2.56564 17.1375 2.74689C17.2125 2.92814 17.25 3.11251 17.25 3.30001C17.25 3.48751 17.2156 3.67189 17.1469 3.85314C17.0781 4.03439 16.9688 4.20001 16.8188 4.35001L9.9375 11.25H6.75ZM8.25 9.75001H9.3L13.65 5.40001L13.125 4.87501L12.5813 4.35001L8.25 8.68126V9.75001Z" fill="currentColor"/>
</svg>
