<svg width="36" height="36" viewBox="0 0 36 36" fill="none" xmlns="http://www.w3.org/2000/svg">
<rect width="36" height="36" rx="18" fill="white"/>
<path d="M18 28.9039C17.3813 28.9039 16.8516 28.6835 16.4111 28.2428C15.9704 27.8023 15.75 27.2726 15.75 26.6539C15.75 26.0351 15.9704 25.5054 16.4111 25.0646C16.8516 24.6241 17.3813 24.4039 18 24.4039C18.6188 24.4039 19.1484 24.6241 19.5889 25.0646C20.0296 25.5054 20.25 26.0351 20.25 26.6539C20.25 27.2726 20.0296 27.8023 19.5889 28.2428C19.1484 28.6835 18.6188 28.9039 18 28.9039ZM18 20.25C17.3813 20.25 16.8516 20.0296 16.4111 19.5889C15.9704 19.1484 15.75 18.6188 15.75 18C15.75 17.3813 15.9704 16.8516 16.4111 16.4111C16.8516 15.9704 17.3813 15.75 18 15.75C18.6188 15.75 19.1484 15.9704 19.5889 16.4111C20.0296 16.8516 20.25 17.3813 20.25 18C20.25 18.6188 20.0296 19.1484 19.5889 19.5889C19.1484 20.0296 18.6188 20.25 18 20.25ZM18 11.5961C17.3813 11.5961 16.8516 11.3759 16.4111 10.9354C15.9704 10.4946 15.75 9.96488 15.75 9.34613C15.75 8.72738 15.9704 8.19776 16.4111 7.75726C16.8516 7.31651 17.3813 7.09613 18 7.09613C18.6188 7.09613 19.1484 7.31651 19.5889 7.75726C20.0296 8.19776 20.25 8.72738 20.25 9.34613C20.25 9.96488 20.0296 10.4946 19.5889 10.9354C19.1484 11.3759 18.6188 11.5961 18 11.5961Z" fill="#1C1B1F"/>
</svg>
